<svg width="21" height="21" viewBox="0 0 21 21" fill="none" xmlns="http://www.w3.org/2000/svg">
<path d="M17.7918 0.083313H3.2085C2.37969 0.083313 1.58484 0.412553 0.998788 0.998604C0.412736 1.58466 0.0834963 2.37951 0.0834963 3.20831V4.42706C0.0833469 4.85721 0.172003 5.28276 0.343913 5.67706V5.73956C0.491079 6.07391 0.69953 6.37775 0.958496 6.6354L7.37516 13.0104V19.875C7.37481 20.052 7.41958 20.2262 7.50524 20.3811C7.5909 20.536 7.71463 20.6666 7.86475 20.7604C8.03052 20.8631 8.2218 20.9173 8.41683 20.9166C8.57989 20.9157 8.74045 20.8764 8.88558 20.8021L13.0522 18.7187C13.224 18.6322 13.3685 18.4997 13.4696 18.3361C13.5707 18.1725 13.6246 17.984 13.6252 17.7916V13.0104L20.0002 6.6354C20.2591 6.37775 20.4676 6.07391 20.6147 5.73956V5.67706C20.801 5.28584 20.9039 4.86017 20.9168 4.42706V3.20831C20.9168 2.37951 20.5876 1.58466 20.0015 0.998604C19.4155 0.412553 18.6206 0.083313 17.7918 0.083313ZM11.8439 11.8437C11.7474 11.9411 11.671 12.0565 11.6192 12.1834C11.5673 12.3103 11.541 12.4462 11.5418 12.5833V17.1458L9.4585 18.1875V12.5833C9.45929 12.4462 9.43301 12.3103 9.38117 12.1834C9.32934 12.0565 9.25296 11.9411 9.15641 11.8437L3.63558 6.33331H17.3647L11.8439 11.8437ZM18.8335 4.24998H2.16683V3.20831C2.16683 2.93205 2.27658 2.66709 2.47193 2.47174C2.66728 2.27639 2.93223 2.16665 3.2085 2.16665H17.7918C18.0681 2.16665 18.333 2.27639 18.5284 2.47174C18.7237 2.66709 18.8335 2.93205 18.8335 3.20831V4.24998Z" fill="#3DD7AC"/>
</svg>
